<svg xmlns="http://www.w3.org/2000/svg" viewBox="0 0 1000 250" width="1000" height="250" font-family="ui-monospace, 'JetBrains Mono', Consolas, monospace">
<defs><marker id="arrow" viewBox="0 0 10 10" refX="9" refY="5" markerWidth="7" markerHeight="7" orient="auto"><path d="M0 0 L10 5 L0 10 z" fill="#3fa6a6"/></marker><linearGradient id="box" x1="0" y1="0" x2="0" y2="1"><stop offset="0" stop-color="#16201f"/><stop offset="1" stop-color="#0f1515"/></linearGradient></defs>
<rect width="1000" height="250" rx="12" fill="#0b0c10"/>
<rect x="16" y="58" width="168" height="92" rx="10" fill="url(#box)" stroke="#3fa6a6" stroke-opacity="0.55"/>
<text x="100" y="96" text-anchor="middle" font-size="17" font-weight="700" fill="#e3e8ee">YAML rules</text>
<text x="100" y="120" text-anchor="middle" font-size="13" fill="#8b97a8">SEC-* and LAW-*</text>
<text x="26" y="48" font-size="11" fill="#3fa6a6">01</text>
<line x1="189" y1="104.0" x2="211" y2="104.0" stroke="#3fa6a6" stroke-width="1.5" marker-end="url(#arrow)"/>
<rect x="216" y="58" width="168" height="92" rx="10" fill="url(#box)" stroke="#3fa6a6" stroke-opacity="0.55"/>
<text x="300" y="96" text-anchor="middle" font-size="17" font-weight="700" fill="#e3e8ee">Test prompts</text>
<text x="300" y="120" text-anchor="middle" font-size="13" fill="#8b97a8">one per rule</text>
<text x="226" y="48" font-size="11" fill="#3fa6a6">02</text>
<line x1="389" y1="104.0" x2="411" y2="104.0" stroke="#3fa6a6" stroke-width="1.5" marker-end="url(#arrow)"/>
<rect x="416" y="58" width="168" height="92" rx="10" fill="url(#box)" stroke="#3fa6a6" stroke-opacity="0.55"/>
<text x="500" y="96" text-anchor="middle" font-size="17" font-weight="700" fill="#e3e8ee">Target model</text>
<text x="500" y="120" text-anchor="middle" font-size="13" fill="#8b97a8">under test</text>
<text x="426" y="48" font-size="11" fill="#3fa6a6">03</text>
<line x1="589" y1="104.0" x2="611" y2="104.0" stroke="#3fa6a6" stroke-width="1.5" marker-end="url(#arrow)"/>
<rect x="616" y="58" width="168" height="92" rx="10" fill="url(#box)" stroke="#3fa6a6" stroke-opacity="0.55"/>
<text x="700" y="96" text-anchor="middle" font-size="17" font-weight="700" fill="#e3e8ee">Judge model</text>
<text x="700" y="120" text-anchor="middle" font-size="13" fill="#8b97a8">isolated grader</text>
<text x="626" y="48" font-size="11" fill="#3fa6a6">04</text>
<line x1="789" y1="104.0" x2="811" y2="104.0" stroke="#3fa6a6" stroke-width="1.5" marker-end="url(#arrow)"/>
<rect x="816" y="58" width="168" height="92" rx="10" fill="url(#box)" stroke="#3fa6a6" stroke-opacity="0.55"/>
<text x="900" y="96" text-anchor="middle" font-size="17" font-weight="700" fill="#e3e8ee">Audit report</text>
<text x="900" y="120" text-anchor="middle" font-size="13" fill="#8b97a8">pass / fail per rule</text>
<text x="826" y="48" font-size="11" fill="#3fa6a6">05</text>
<text x="500.0" y="202" text-anchor="middle" font-size="14" fill="#8b97a8">The target never grades itself: an isolated judge model scores every response.</text>
</svg>